<?xml version='1.0' encoding='utf-8'?>
<!DOCTYPE svg PUBLIC '-//W3C//DTD SVG 1.1//EN' 'http://www.w3.org/Graphics/SVG/1.1/DTD/svg11.dtd'>
<svg version="1.1" xmlns="http://www.w3.org/2000/svg" viewBox="0 0 512 512" xmlns:xlink="http://www.w3.org/1999/xlink" enable-background="new 0 0 512 512">
  <g>
    <g>
      <path fill="white" d="m344.9,208.2c-2.9-13.4-8.2-26-15.5-37.2 8.3-9.8 10.1-26.3 1.1-35.3-9-9-25.6-7.2-35.3,1.1-11.2-7.2-23.8-12.5-37.2-15.5-1-12.8-11.5-25.7-24.2-25.7-12.7,0-23.1,13-24.2,25.7-13.4,2.9-26,8.2-37.2,15.5-9.8-8.3-26.3-10.1-35.3-1.1-9,9-7.2,25.6 1.1,35.3-7.2,11.2-12.5,23.8-15.5,37.2-12.8,1-25.7,11.5-25.7,24.2 0,12.7 13,23.1 25.7,24.2 2.9,13.4 8.2,26 15.5,37.2-8.3,9.8-10.1,26.3-1.1,35.3 9,9 25.6,7.2 35.3-1.1 11.2,7.2 23.8,12.5 37.2,15.5 1,12.8 11.5,25.7 24.2,25.7 12.7,0 23.1-13 24.2-25.7 13.4-2.9 26-8.2 37.2-15.5 9.8,8.3 26.3,10.1 35.3,1.1 9-9 7.2-25.6-1.1-35.3 7.2-11.2 12.5-23.8 15.5-37.2 12.8-1 25.7-11.5 25.7-24.2 0.1-12.7-12.9-23.1-25.7-24.2zm-111,83.9c-32.9,0-59.7-26.8-59.7-59.7 0-32.9 26.8-59.7 59.7-59.7 32.9,0 59.7,26.8 59.7,59.7 5.68434e-14,32.9-26.8,59.7-59.7,59.7z"/>
      <path fill="white" d="m495,464.5l-89.7-89.7c32.2-38.6 51.5-88.3 51.5-142.5 0-123-99.8-222.8-222.9-222.8s-222.8,99.8-222.8,222.9 99.8,222.9 222.9,222.9c54.2,0 103.9-19.3 142.5-51.5l89.7,89.7c8,8 20.9,8 28.9,0 7.8-8.1 7.8-21-0.1-29zm-261.1-50.1c-100.5,0-182-81.5-182-182s81.5-182 182-182 182,81.5 182,182-81.4,182-182,182z"/>
    </g>
  </g>
</svg>
